<svg width="595" height="286" viewBox="0 0 595 286" fill="none" xmlns="http://www.w3.org/2000/svg">
<g clip-path="url(#clip0_4264_4148)">
<path d="M254.85 0L259.85 12H249.24L141.85 177C141.85 177 236.85 53 344.85 95C344.85 95 446.85 48 486.85 51L306.85 47.7L436.85 0H254.85Z" fill="black"/>
<path d="M14.85 213.94H81.78L77.98 231.82H35.92L34.02 240.54H73.49L69.95 257.21H30.49L28.68 265.85H71.95L68.15 283.81H0L14.85 213.94Z" fill="black"/>
<path d="M130.75 274.57H102.94L97.15 283.81H71.67L116.49 213.94H143.18L157.86 283.81H132.38L130.74 274.57H130.75ZM114.08 256.95H127.64L124.79 240.45H124.53L114.08 256.95Z" fill="black"/>
<path d="M198.03 269.3C201.83 269.3 207.88 268.52 209 263.43C209.86 259.54 207.1 258.94 197 256.35C196.05 256.09 195.01 255.75 193.8 255.49C181.45 252.29 166.59 248.93 169.45 235.45C173.16 218.09 190.26 212.56 207.11 212.56C223.96 212.56 239.76 218.43 236.13 235.62H211.95C213.68 230.09 208.41 228.11 203.75 228.11C200.55 228.11 195.11 228.8 194.34 232.69C193.56 236.23 200.3 237.61 207.73 239.34L215.42 241.24C226.13 243.83 237.7 248.84 235.11 261.19C231.22 279.24 210.67 285.03 192.45 285.03C183.38 285.03 157.47 282.18 162.05 260.07H187.61C186.06 267.58 191.06 269.31 198.06 269.31L198.03 269.3Z" fill="black"/>
<path d="M259.43 258.07L240.34 213.94H267.89L275.92 239.16H276.09L295.35 213.94H322.81L284.38 258.07L278.94 283.81H253.98L259.42 258.07H259.43Z" fill="black"/>
<path d="M354.77 213.94H397.09C420.84 213.94 425.59 226.46 423.43 236.65C421.44 245.98 415.48 252.45 406.93 256.25L421.18 283.8H392.77L381.89 260.31H369.8L364.79 283.8H339.92L354.77 213.93V213.94ZM373.25 243.82H383.53C390.53 243.82 397.26 244.25 398.73 237.43C400.02 231.38 394.5 230.95 387.76 230.95H376.01L373.25 243.82Z" fill="black"/>
<path d="M502.62 256.43C498.47 275.86 485 285.02 460.56 285.02C436.12 285.02 426.27 275.87 430.42 256.43L439.49 213.94H463.93L455.9 251.68C454.43 258.68 452.45 267.66 464.45 267.66C476.45 267.66 477.84 258.68 479.31 251.68L487.34 213.94H511.7L502.63 256.43H502.62Z" fill="black"/>
<path d="M520.32 213.94H546.32L562.47 251.25H562.82L570.77 213.94H594.87L580.02 283.81H555.15L538.14 245.55H537.62L529.5 283.81H505.49L520.34 213.94H520.32Z" fill="black"/>
</g>
<defs>
<clipPath id="clip0_4264_4148">
<rect width="594.86" height="285.02" fill="white"/>
</clipPath>
</defs>
</svg>
